<svg xmlns="http://www.w3.org/2000/svg" viewBox="0 0 562.33 226.9"><defs><style>.a{fill:#0173b3;}</style></defs><title>Gott</title><path class="a" d="M534.8,298.44l-5.51-6.23c13.78-10.3,20.72-24.56,20.72-43,0-13.18-9.7-20.13-29.11-21-21.56-.84-32.47-9.94-32.47-27.55,0-9.1,3.11-19.29,9.22-30.67h5.27c1.32,8.86,7.19,13.78,17.73,14.62l17.73,1.2c17.49,1.32,26.24,13.3,26.24,36.18v14.62q0.18,46.36-29.83,61.82M425.18,396.67l-3.11-4.07q5-8.63,5-20.49c0-7.67-.48-19.17-1.56-34.62S424,310.42,424,302.75q0-47.08,22.88-74.27H331.74c-19.65,0-29.47-8.15-29.47-24.68q0-19.23,11.86-32h5.27q3.05,13.66,18.33,13.66h95.48c8.15,0,14.5,1.32,18.81,4.07s6.47,9.1,6.47,19.17v9.58c0,4.79-2.4,11.14-7.19,18.93s-7.07,19.65-7.07,35.94c0,9.34,1.56,23.48,4.55,42.17s4.55,32.82,4.55,42.17c-0.24,23.24-9.46,36.3-28.15,39.17m-118.12.24-2.76-4.31c3.35-3.47,5-8.27,5-14.26,0-4.07-.24-10.18-0.6-18.33s-0.6-14.38-.6-18.33c0-27.19,9.82-40.85,29.35-40.85a12.49,12.49,0,0,1,6.59,1.56v5.27c-6.23,4.07-9.34,12.58-9.34,25.64,0,4.31.24,10.66,0.84,19.17s0.84,14.74.84,18.93c-0.12,15.81-9.82,24.32-29.35,25.52m-56.3-1.44-4.31-1.32v-135c0-9.34-1.56-16.29-4.55-20.72s-10.78-7.91-23.84-9.94c-19.77-3.23-29.71-13.18-29.71-29.71,0-12,3.83-21.56,11.38-28.75H205c1.08,8,6.47,12.94,16.17,14.62l16.41,2.52c9.1,1.44,15.81,4.91,19.89,10.54q6.47,8.45,6.47,33.42v140c0.12,11.74-4.31,19.77-13.18,24.32m-125.67,1.2L122,392.6q5-8.63,5-20.49c0-7.67-.48-19.17-1.56-34.62s-1.56-27.07-1.56-34.74q0-47.08,22.88-74.27h-115c-19.65,0-29.47-8.15-29.47-24.68q0-19.23,11.86-32h5.27q3.05,13.66,18.33,13.66h95.36c8.15,0,14.5,1.32,18.81,4.07s6.47,9.1,6.47,19.17v9.58c0,4.79-2.4,11.14-7.19,18.93s-7.07,19.65-7.07,35.94c0,9.34,1.56,23.48,4.55,42.17s4.55,32.82,4.55,42.17c-0.24,23.24-9.46,36.3-28.15,39.17m-118.24.24L4.1,392.6c3.35-3.47,5-8.27,5-14.26,0-4.07-.24-10.18-0.6-18.33s-0.6-14.38-.6-18.33c0-27.19,9.82-40.85,29.35-40.85a12.49,12.49,0,0,1,6.59,1.56v5.27c-6.23,4.07-9.34,12.58-9.34,25.64,0,4.31.24,10.66,0.84,19.17s0.84,14.74.84,18.93c0,15.81-9.82,24.32-29.35,25.52" transform="translate(-2.3 -170.02)"/></svg>