<svg xmlns="http://www.w3.org/2000/svg" viewBox="0 0 520.66 550.23"><defs><style>.a{fill:#cc78a7;}</style></defs><title>Kirchen</title><path class="a" d="M566.92,390.16l-42.5-60.45-2.92-3.21-339.34,1.21h0L121.91,50.28l60.25,277.42-20.75-95.52L121.91,50.29h0V28.87a0,0,0,0,1,0,0h5.33a1.9,1.9,0,0,0,1.92-1.55,1.82,1.82,0,0,0-1.79-2.09h-5.46a0,0,0,0,1,0,0V19A2.21,2.21,0,0,0,120,16.71a2.1,2.1,0,0,0-2.28,2.1v6.33a0,0,0,0,1,0,0h-5.33a1.91,1.91,0,0,0-1.93,1.54,1.82,1.82,0,0,0,1.8,2.1h5.46a0,0,0,0,1,0,0V50.28h0L46.27,327.4h0V566.88a0,0,0,0,0,0,0H85.4a0,0,0,0,0,0,0V463c0-19.06,15-36.12,34.06-36.5,19.55-.39,35.53,19,35.53,38.5V566.89a0,0,0,0,0,0,0H566.89a0,0,0,0,0,0,0V390.18h-1Z" transform="translate(-46.27 -16.7)"/></svg>