<svg xmlns="http://www.w3.org/2000/svg" viewBox="0 0 561.24 561.24"><defs><style>.a{fill:none;stroke:#f0e443;stroke-miterlimit:10;stroke-width:30px;}.b{fill:#f0e443;}</style></defs><title>Religionen</title><circle class="a" cx="280.62" cy="280.62" r="265.62"/><path class="b" d="M110.7,294L80.81,345.74h-54L110.7,491l29.89-51.76h54l-27-46.74,27-46.74h-54L110.7,294h0Z" transform="translate(-2.85 -2.02)"/><polygon class="b" points="423.37 321.74 481.41 321.74 481.41 464.58 452.05 493.94 423.37 493.94 423.37 321.74 423.37 321.74"/><polygon class="b" points="366.28 378.81 525.58 378.81 523.82 386.81 518.94 392.81 495.73 436.86 366.28 436.86 366.28 378.81 366.28 378.81"/><path class="b" d="M373.34,100.54A89.87,89.87,0,1,0,226,169.6a68.73,68.73,0,1,1,115,0A89.73,89.73,0,0,0,373.34,100.54Z" transform="translate(-2.85 -2.02)"/></svg>