<svg xmlns="http://www.w3.org/2000/svg" viewBox="0 0 561.31 556.39"><defs><style>.a{fill:#009e73;}</style></defs><title>Welt</title><path class="a" d="M379.61,238.56l7.79,11.13,1.67-.56a57.18,57.18,0,0,0,0-19.47l-2.23-.56a13,13,0,0,1-9.46,5.56Z" transform="translate(-2.81 -5.27)"/><path class="a" d="M542.61,189.61c-30-84.56-105.14-155.77-193-175.79h0C214.95-20.68,75.31,52.2,23,179.59h0c-8.9,21.7-14.46,44.5-17.8,67.31h0C-22.6,452.74,195.47,630.76,399.08,535.07c131.29-61.19,191.93-212,143.53-345.47C542.61,188.49,591,323.12,542.61,189.61Zm-148,336C287.82,575.68,146,542.31,72.53,450.52c-0.56-1.67-1.67-3.89-2.23-5.56a18.68,18.68,0,0,0,14.46-.56c1.67-11.13,2.23-20-2.23-30.6,1.11-.56,2.23-1.67,3.34-2.23,0.56-2.23,1.11-3.89,1.67-6.12l5-3.34c2.23-6.12,1.11-12.24-2.23-17.8A60.68,60.68,0,0,1,84.21,381c-2.23-3.89-4.45-7.23-6.12-11.13a201.17,201.17,0,0,1-18.36-11.13c-3.34-7.79-8.34-14.46-13.91-20.58,0-22.81-18.36-64-28.37-85.67a250.72,250.72,0,0,1,5-29.48,24.46,24.46,0,0,0,11.13,17.25c-5.56-9.46-7.79-20-7.23-31.15a248.45,248.45,0,0,1,30-66.76c11.13-8.34,20-13.91,32.82-19.47,0,1.67.56,3.34,0.56,4.45a23.46,23.46,0,0,0,16.13-2.78c-2.78-1.11-6.12-2.23-8.9-3.34a90,90,0,0,0,10.57-10,19.76,19.76,0,0,0-2.23-5c1.67,0,3.89-.56,5.56-0.56,2.23,1.67,3.89,3.89,6.12,5.56a90.13,90.13,0,0,0,12.24-.56c8.34-15,8.9-20.58,21.14-35.6-3.34,1.11-6.68,1.67-10,2.78,5-5,8.9-11.13,12.24-17.25-15,6.68-27.26,16.13-42.84,22.25,20.58-17.8,16.69-19.47,49-36.16,1.67,0,3.89.56,5.56,0.56,0,2.23.56,3.89,0.56,6.12-2.78,5-5.56,9.46-8.34,14.46,16.69,0,31.15-10,46.17-16.69-1.67-1.11-2.78-1.67-4.45-2.78,0-1.67-.56-2.78-0.56-4.45a21.67,21.67,0,0,0,7.23-11.13c1.11,1.11,2.78,2.23,3.89,3.34,0.56-.56,1.11-1.67,1.67-2.23a29.94,29.94,0,0,0,12.24,2.23c-15,20-41.17,29.48-54,50.62l1.67,1.67a10.31,10.31,0,0,0-1.11,3.89c1.67,0.56,2.78,1.67,4.45,2.23,12.8-10.57,26.7-10.57,40.05-18.91,25,6.12,31.71-22.81,51.74-30.6-1.11-2.23-2.23-3.89-3.34-6.12,14.46,7.23,27.82,5,43.39,2.23A30.86,30.86,0,0,1,309,36.62a21.48,21.48,0,0,0,11.68,1.67c0-2.23-.56-3.89-0.56-6.12,7.23-4.45,10.57-5.56,19.47-5a7.06,7.06,0,0,1,.56-3.34l-0.56-.56a149.13,149.13,0,0,1,15,3.89c0,0.56-.56,1.67-0.56,2.23-1.11-.56-2.78-1.67-3.89-2.23-2.78.56-5,1.11-7.79,1.67C344,35.51,347.9,40.52,354,44.41a34.21,34.21,0,0,1-.56,7.79l6.68,5c-1.67,2.78-3.34,5.56-5,7.79,1.11,0,2.23.56,3.34,0.56,1.11,1.11,1.67,2.23,2.78,3.34-2.78.56-5.56,1.67-8.34,2.23-1.11,2.23-1.67,5-2.78,7.23a56.43,56.43,0,0,1-7.23,5c-7.79-6.12-14.46-6.12-24.48-7.79-1.11-.56-1.67-1.67-2.78-2.23-5.56,0-9.46,1.11-14.46,2.23C291.72,87.25,285,96.7,273.91,106.72c-1.11,5.56-.56,9.46,2.23,13.91a4.22,4.22,0,0,0,2.23,1.11,16.66,16.66,0,0,0,4.45-2.23v-2.78a19.77,19.77,0,0,1,5.56-1.11c0.56,3.89,2.78,6.68,5,10a7.72,7.72,0,0,0,0,5c1.11,0,2.78.56,3.89,0.56l6.68-5a17.13,17.13,0,0,1-1.67-7.23c2.23-1.11,3.89-1.67,6.12-2.78a8.61,8.61,0,0,0-6.68-5.56v-7.23c1.67-1.11,3.34-2.78,5-3.89a18.91,18.91,0,0,1,3.89-8.34h5.56c0,1.11.56,2.78,0.56,3.89-1.67,1.11-2.78,2.23-4.45,3.34-0.56,1.67-1.11,2.78-1.67,4.45a26.77,26.77,0,0,0,4.45,8.9,20.86,20.86,0,0,0,6.12-.56l3.34-3.34c2.23,0.56,5,1.11,7.23,1.67v1.67c-3.89,2.23-8.34,3.34-12.8,4.45-0.56,1.11-1.67,2.23-2.23,3.89l1.67,1.67c-1.11.56-1.67,0.56-2.78,1.11,0,3.34.56,6.12,2.78,8.9a14.83,14.83,0,0,1-7.79,3.89L309,133.42a50.79,50.79,0,0,1-7.23,4.45c-0.56,1.11-.56,1.67-1.11,2.78-2.23-1.11-3.34-2.78-4.45-5l-2.23,2.23c-1.67,0-3.89-.56-5.56-0.56a11.64,11.64,0,0,0-2.23-3.34,27.94,27.94,0,0,1,2.78-7.23c-0.56-1.11-1.67-2.23-2.23-3.34a26.37,26.37,0,0,0-5.56,5.56,21.82,21.82,0,0,1,2.23,10,12.23,12.23,0,0,1-7.79,1.11c-5.56,3.89-6.68,7.79-13.35,10.57a5,5,0,0,1-.56,2.78c-1.11.56-2.78,1.67-3.89,2.23a2,2,0,0,1-.56,1.67c-2.23,0-3.89-.56-6.12-0.56,0,1.11-.56,1.67-0.56,2.78-0.56,0-1.67.56-2.23,0.56-1.67-.56-2.78-1.11-4.45-1.67a13.94,13.94,0,0,0-3.89,2.23c1.67,2.78,4.45,3.89,7.79,4.45,0,1.11.56,2.23,0.56,3.34l2.23,2.23c-0.56,2.78-1.11,6.12-1.67,9.46-0.56,1.11-1.67,1.67-2.23,2.78-7.23.56-13.91-1.67-21.14-1.11-2.78,3.34-5,6.68-7.79,10a13.68,13.68,0,0,1-.56,9.46c0,3.34,1.67,5.56,4.45,7.79a16.24,16.24,0,0,0,5,1.11v4.45a4.22,4.22,0,0,0,2.23,1.11,17.55,17.55,0,0,1,13.91-2.23,43.87,43.87,0,0,0,8.34-6.68c-0.56-1.67-1.11-2.78-1.67-4.45,0-1.67.56-2.78,0.56-4.45,1.67-1.67,2.78-3.34,4.45-5,1.67-.56,3.89-1.11,5.56-1.67,2.23-2.23,3.34-4.45,3.34-7.23,1.67-.56,3.34-0.56,5-1.11l5,1.67a125.19,125.19,0,0,1,13.35-4.45,9.4,9.4,0,0,0,2.78,1.11c5,11.13,17.25,11.13,22.81,20.58a8.27,8.27,0,0,1-1.11,5c0.56,0.56.56,1.11,1.11,2.23a24.7,24.7,0,0,0,4.45-6.12,14.75,14.75,0,0,0-2.78-3.34c0.56-1.11,1.11-1.67,1.67-2.78a7.48,7.48,0,0,1,3.89,3.34c0.56-.56,1.11-0.56,1.67-1.11-2.78-3.34-6.12-5-9.46-7.79a6.85,6.85,0,0,1-5.56-1.11,31.54,31.54,0,0,1-4.45-7.23,12.16,12.16,0,0,1-2.78-1.67l-1.67-3.34c0-.56.56-0.56,0.56-1.11-0.56-.56-0.56-1.11-1.11-1.67,0.56-.56.56-1.11,1.11-1.67,1.11,0,2.23-.56,3.34-0.56,5,3.34,6.68,8.9,12.8,10.57a7.68,7.68,0,0,1,1.67,2.23c1.67,0.56,3.34.56,5,1.11,1.11,1.11,1.67,2.78,2.78,3.89-0.56,1.11-.56,2.23-1.11,3.34,3.89,3.89,5.56,5.56,11.68,6.12l1.67,3.34a34,34,0,0,0,6.68,2.78c0.56-1.11.56-1.67,1.11-2.78-4.45-2.78-5-3.89-7.23-8.34l3.34-3.34c5.56-.56,10,0.56,14.46-3.89-1.11-2.78-2.78-5-3.89-7.79a33.11,33.11,0,0,0,14.46-8.9c2.23,0,3.89.56,6.12,0.56,1.67-1.11,3.34-2.78,5-3.89,8.34,0.56,13.35,3.34,20.58,7.79v5A38.78,38.78,0,0,1,385.73,184a24.17,24.17,0,0,0-13.91-2.78c-6.12,5.56-14.46,8.34-22.25,11.68,0,1.67.56,3.34,0.56,5.56a80.46,80.46,0,0,1,11.68,12.24,16.24,16.24,0,0,1,5-1.11l1.67-3.34c1.11,1.11,2.23,1.67,3.34,2.78,2.23-.56,5-0.56,7.23-1.11,0.56-1.11,1.67-2.23,2.23-3.34,2.78,0,5,.56,7.79.56a82.17,82.17,0,0,0,0,23.36c0.56,0,1.67.56,2.23,0.56,1.67,7.23.56,10,1.67,17.25,7.23,5,9.46,13.35,16.69,17.8,2.23,5,4.45,10,8.34,14.46,1.67,0.56,3.34,1.67,5.56,2.23,6.68,12.8,11.13,16.13,17.25,31.71a207.67,207.67,0,0,0,28.93-25c0-1.67.56-3.89,0.56-5.56,2.78-2.78,5.56-5.56,8.9-8.34a27.92,27.92,0,0,0,1.11-6.68c1.11-1.11,2.23-1.67,3.34-2.78-0.56-1.67-1.11-3.89-1.67-5.56a31.59,31.59,0,0,0,3.89-12.24c-1.67-1.11-3.89-2.78-5.56-3.89-1.67,0-2.78.56-4.45,0.56-1.11-.56-2.23-1.67-3.34-2.23l-3.34-8.34a47.53,47.53,0,0,1-5,13.35,33,33,0,0,0-4.45,2.23c-1.11-.56-1.67-0.56-2.78-1.11a22.32,22.32,0,0,0-1.67-8.34,3,3,0,0,1-1.67,1.11v3.89a99.79,99.79,0,0,0-12.8-13.91c-0.56-1.67-.56-3.34-1.11-5.56,1.67-1.11,3.34-1.67,5-2.78a34.06,34.06,0,0,1,8.34,9.46h3.34a9.18,9.18,0,0,0,8.34,2.78,48.64,48.64,0,0,0,4.45-5.56H472c1.11,1.67,1.67,3.89,2.78,5.56,9.46-2.78,15.58-6.68,23.92-10.57a17.22,17.22,0,0,0,11.13,7.23c1.11-1.11,2.78-2.23,3.89-3.34,12.24,12.8,22.81,38.39,28.37,55.63,1.67-13.35,3.34-26.15-2.78-38.39,2.23-13.91-3.89-29.48.56-42.28,35.6,126.84-22.81,265.92-145.2,323.77C358.47,542.31,517,467.76,394.63,525.62Z" transform="translate(-2.81 -5.27)"/><path class="a" d="M238.31,93.37l-2.23-5.56c-5-.56-9.46-1.11-14.46-1.67l-2.78,2.23,1.67,2.78-1.67,2.78,2.23,2.23C227.18,96.7,232.75,96.15,238.31,93.37Z" transform="translate(-2.81 -5.27)"/><path class="a" d="M228.3,146.77c2.78-.56,5.56-1.67,8.34-2.23,1.67-2.78,3.34-5.56,5-8.9l-2.23-4.45-3.89-.56-2.23,3.89-2.23,1.11L230.52,139l-1.67,1.11-0.56,1.67-1.67,1.11-0.56,2.78Z" transform="translate(-2.81 -5.27)"/><path class="a" d="M238.87,154l3.34-1.67,1.67,0.56a34.09,34.09,0,0,1,15-2.23l1.67-1.67-1.11-2.23,2.78-2.23a41.68,41.68,0,0,1-8.34-11.13v-2.23L251.66,129l0.56-2.78,2.23-1.67a36.73,36.73,0,0,0,.56-7.79l-11.13,1.11c-1.67,4.45-1.11,9.46.56,13.91a8,8,0,0,1,5,6.12l-2.78,2.78H245v3.89l-2.23,1.11-1.11,1.67,1.67,2.23Z" transform="translate(-2.81 -5.27)"/><path class="a" d="M431.35,471.66l7.79-3.34a370.26,370.26,0,0,0,21.14-38.39L459.72,416l-3.89,6.68h-1.11c-3.34,6.68-9.46,12.24-16.13,15.58,0,2.23-1.11,3.89-2.78,5.56a12.29,12.29,0,0,1,0,8.9c-3.34,2.78-5.56,6.68-7.79,10l1.11,2.23-1.67,3.34Z" transform="translate(-2.81 -5.27)"/><path class="a" d="M326.76,516.16l-6.68-3.89,0.56-3.34-5.56-10.57-3.34-.56a54.41,54.41,0,0,0-15-33.93l1.11-11.13,9.46-11.68-3.89-8.9,1.67-6.12c-6.12-10-12.8-20-20.58-28.93l5-18.36-5.56-8.34q-10,3.34-18.36-1.67L260,360.39a52.87,52.87,0,0,0-29.48,7.23l-7.79-3.34-19.47,3.34a115.74,115.74,0,0,0-43.95-31.15,223.61,223.61,0,0,1,13.35-38.39L170.44,282l4.45-10.57,6.68-5,1.11-6.68a51.66,51.66,0,0,1,23.92-15l4.45-15a48,48,0,0,0,15-11.13,25.86,25.86,0,0,0,12.8,5c13.35-7.79,27.82-10,42.84-6.12l5.56-2.78,6.12,1.67L289.49,228a215.54,215.54,0,0,0,36.16,17.25l5-2.78-1.11-5.56,2.78-3.89a274,274,0,0,0,47.29,5.56c6.12,13.35,15,26.7,25,36.72l5.56,14.46c10.57,11.13,21.7,22.25,32.82,33.38l3.89-3.89,5.56-.56A34,34,0,0,1,465.84,307c-22.25,41.72-36.16,85.12-40.61,131.29-9.46,7.23-18.91,15-27.82,22.81l1.67,10.57-2.78,5.56-12.24,6.12-1.67,7.23c-13.91,13.35-29.48,23.36-47.84,29.48Z" transform="translate(-2.81 -5.27)"/><path class="a" d="M308.41,209.08a17.62,17.62,0,0,1-8.9,2.23l-0.56,2.23c2.78,1.11,6.12,2.23,8.9,3.34l2.23-2.23L309,212.42" transform="translate(-2.81 -5.27)"/><path class="a" d="M365.71,219.65a25.21,25.21,0,0,0,10.57-6.12v1.11a4.81,4.81,0,0,0-1.67,3.34c0.56,0.56,1.11,1.67,1.67,2.23l-5,3.34h-5L364,222.43" transform="translate(-2.81 -5.27)"/><path class="a" d="M280.59,194.61l-1.11,1.67L280,198l1.67,1.11a7.06,7.06,0,0,1,.56-3.34" transform="translate(-2.81 -5.27)"/></svg>